ffmpeg started on 2025-06-05 at 20:34:05
Report written to "D:\Convert\FFMetrics\reports\psnr_report-6.txt"
Log level: 32
Command line:
ffmpeg -hide_banner -nostdin -i "G:\\\xc0\xed\xe8\xec\xe5\\\xce\xed\xe3\xee\xe8\xed\xe3\xe8\\!_36_\xce\xf1\xe5\xed\xfc_2024\\DreamCast\\\xcd\xe5\xe3\xe0\xf2\xe8\xe2\xed\xfb\xe9 \xef\xee\xe7\xe8\xf2\xe8\xe2\xed\xfb\xe9 \xf0\xfb\xe1\xe0\xea\\[DC] NegaPosi Angler - 12_Telegram_HEVC.mkv" -i "G:\\\xc0\xed\xe8\xec\xe5\\\xce\xed\xe3\xee\xe8\xed\xe3\xe8\\!_36_\xce\xf1\xe5\xed\xfc_2024\\DreamCast\\\xcd\xe5\xe3\xe0\xf2\xe8\xe2\xed\xfb\xe9 \xef\xee\xe7\xe8\xf2\xe8\xe2\xed\xfb\xe9 \xf0\xfb\xe1\xe0\xea\\[DC] NegaPosi Angler - 12_Telegram.mp4" -lavfi "[0:v]settb=AVTB,setpts=PTS-STARTPTS,format=pix_fmts=yuv420p10,fps=24000/1001,scale=1920:1080:flags=bicubic[main];[1:v]settb=AVTB,setpts=PTS-STARTPTS,format=pix_fmts=yuv420p,fps=24000/1001,scale=1920:1080:flags=bicubic[ref];[main][ref]psnr=eof_action=endall:stats_file='D\\:/Convert/FFMetrics/logs/psnr_logfile-6.txt'" -f null -
Input #0, matroska,webm, from 'G:\Аниме\Онгоинги\!_36_Осень_2024\DreamCast\Негативный позитивный рыбак\[DC] NegaPosi Angler - 12_Telegram_HEVC.mkv':
  Metadata:
    COMPATIBLE_BRANDS: isomiso2avc1mp41
    MAJOR_BRAND     : isom
    MINOR_VERSION   : 512
    ENCODER         : Lavf61.7.100
  Duration: 00:23:46.73, start: -0.021000, bitrate: 1005 kb/s
  Stream #0:0: Video: hevc (Main 10), yuv420p10le(tv, bt709, progressive), 1920x1080 [SAR 1:1 DAR 16:9], 23.98 fps, 23.98 tbr, 1k tbn (default)
      Metadata:
        HANDLER_NAME    : VideoHandler
        VENDOR_ID       : [0][0][0][0]
        ENCODER         : Lavc61.19.100 libx265
        BPS             : 808186
        DURATION        : 00:23:46.549708333
        NUMBER_OF_FRAMES: 34203
        NUMBER_OF_BYTES : 144114692
        _STATISTICS_WRITING_APP: mkvpropedit v66.0.0 ('Josie') 64-bit
        _STATISTICS_WRITING_DATE_UTC: 2025-05-31 14:31:27
        _STATISTICS_TAGS: BPS DURATION NUMBER_OF_FRAMES NUMBER_OF_BYTES
  Stream #0:1: Audio: aac (LC), 48000 Hz, stereo, fltp (default)
      Metadata:
        HANDLER_NAME    : SoundHandler
        VENDOR_ID       : [0][0][0][0]
        ENCODER         : Lavc61.19.100 aac
        BPS             : 193247
        DURATION        : 00:23:46.730000000
        NUMBER_OF_FRAMES: 66879
        NUMBER_OF_BYTES : 34463932
        _STATISTICS_WRITING_APP: mkvpropedit v66.0.0 ('Josie') 64-bit
        _STATISTICS_WRITING_DATE_UTC: 2025-05-31 14:31:27
        _STATISTICS_TAGS: BPS DURATION NUMBER_OF_FRAMES NUMBER_OF_BYTES
Input #1, mov,mp4,m4a,3gp,3g2,mj2, from 'G:\Аниме\Онгоинги\!_36_Осень_2024\DreamCast\Негативный позитивный рыбак\[DC] NegaPosi Angler - 12_Telegram.mp4':
  Metadata:
    major_brand     : isom
    minor_version   : 512
    compatible_brands: isomiso2avc1mp41
    encoder         : Lavf61.1.100
  Duration: 00:23:46.68, start: 0.000000, bitrate: 3787 kb/s
  Stream #1:0[0x1](und): Video: h264 (High) (avc1 / 0x31637661), yuv420p(tv, bt709, progressive), 1920x1080 [SAR 1:1 DAR 16:9], 3639 kb/s, 23.98 fps, 23.98 tbr, 24k tbn (default)
      Metadata:
        handler_name    : VideoHandler
        vendor_id       : [0][0][0][0]
        encoder         : Lavc61.3.100 h264_qsv
  Stream #1:1[0x2](und): Audio: aac (HE-AACv2) (mp4a / 0x6134706D), 48000 Hz, stereo, fltp, 144 kb/s (default)
      Metadata:
        handler_name    : SoundHandler
        vendor_id       : [0][0][0][0]
Stream mapping:
  Stream #0:0 (hevc) -> settb:default
  Stream #1:0 (h264) -> settb:default
  psnr:default -> Stream #0:0 (wrapped_avframe)
  Stream #0:1 -> #0:1 (aac (native) -> pcm_s16le (native))
Output #0, null, to 'pipe:':
  Metadata:
    COMPATIBLE_BRANDS: isomiso2avc1mp41
    MAJOR_BRAND     : isom
    MINOR_VERSION   : 512
    encoder         : Lavf61.7.100
  Stream #0:0: Video: wrapped_avframe, yuv420p10le(tv, bt709, progressive), 1920x1080 [SAR 1:1 DAR 16:9], q=2-31, 200 kb/s, 23.98 fps, 23.98 tbn
      Metadata:
        encoder         : Lavc61.19.100 wrapped_avframe
  Stream #0:1: Audio: pcm_s16le, 48000 Hz, stereo, s16, 1536 kb/s (default)
      Metadata:
        HANDLER_NAME    : SoundHandler
        VENDOR_ID       : [0][0][0][0]
        _STATISTICS_TAGS: BPS DURATION NUMBER_OF_FRAMES NUMBER_OF_BYTES
        BPS             : 193247
        DURATION        : 00:23:46.730000000
        NUMBER_OF_FRAMES: 66879
        NUMBER_OF_BYTES : 34463932
        _STATISTICS_WRITING_APP: mkvpropedit v66.0.0 ('Josie') 64-bit
        _STATISTICS_WRITING_DATE_UTC: 2025-05-31 14:31:27
        encoder         : Lavc61.19.100 pcm_s16le
frame=  172 fps=0.0 q=-0.0 size=N/A time=00:00:07.17 bitrate=N/A speed=13.8x    frame=  418 fps=405 q=-0.0 size=N/A time=00:00:17.43 bitrate=N/A speed=16.9x    frame=  672 fps=431 q=-0.0 size=N/A time=00:00:28.02 bitrate=N/A speed=  18x    frame=  924 fps=446 q=-0.0 size=N/A time=00:00:38.53 bitrate=N/A speed=18.6x    frame= 1168 fps=453 q=-0.0 size=N/A time=00:00:48.71 bitrate=N/A speed=18.9x    frame= 1417 fps=456 q=-0.0 size=N/A time=00:00:59.10 bitrate=N/A speed=  19x    frame= 1676 fps=464 q=-0.0 size=N/A time=00:01:09.90 bitrate=N/A speed=19.4x    frame= 1933 fps=467 q=-0.0 size=N/A time=00:01:20.62 bitrate=N/A speed=19.5x    frame= 2159 fps=465 q=-0.0 size=N/A time=00:01:30.04 bitrate=N/A speed=19.4x    frame= 2407 fps=466 q=-0.0 size=N/A time=00:01:40.39 bitrate=N/A speed=19.4x    frame= 2641 fps=465 q=-0.0 size=N/A time=00:01:50.15 bitrate=N/A speed=19.4x    frame= 2861 fps=461 q=-0.0 size=N/A time=00:01:59.32 bitrate=N/A speed=19.2x    frame= 3112 fps=463 q=-0.0 size=N/A time=00:02:09.79 bitrate=N/A speed=19.3x    frame= 3353 fps=463 q=-0.0 size=N/A time=00:02:19.84 bitrate=N/A speed=19.3x    frame= 3597 fps=464 q=-0.0 size=N/A time=00:02:30.02 bitrate=N/A speed=19.4x    frame= 3846 fps=465 q=-0.0 size=N/A time=00:02:40.41 bitrate=N/A speed=19.4x    frame= 4109 fps=468 q=-0.0 size=N/A time=00:02:51.37 bitrate=N/A speed=19.5x    frame= 4355 fps=468 q=-0.0 size=N/A time=00:03:01.63 bitrate=N/A speed=19.5x    frame= 4622 fps=471 q=-0.0 size=N/A time=00:03:12.77 bitrate=N/A speed=19.6x    frame= 4879 fps=472 q=-0.0 size=N/A time=00:03:23.49 bitrate=N/A speed=19.7x    frame= 5126 fps=473 q=-0.0 size=N/A time=00:03:33.79 bitrate=N/A speed=19.7x    frame= 5402 fps=475 q=-0.0 size=N/A time=00:03:45.30 bitrate=N/A speed=19.8x    frame= 5636 fps=474 q=-0.0 size=N/A time=00:03:55.06 bitrate=N/A speed=19.8x    frame= 5885 fps=475 q=-0.0 size=N/A time=00:04:05.45 bitrate=N/A speed=19.8x    frame= 6139 fps=476 q=-0.0 size=N/A time=00:04:16.04 bitrate=N/A speed=19.8x    frame= 6399 fps=477 q=-0.0 size=N/A time=00:04:26.89 bitrate=N/A speed=19.9x    frame= 6642 fps=477 q=-0.0 size=N/A time=00:04:37.02 bitrate=N/A speed=19.9x    frame= 6892 fps=477 q=-0.0 size=N/A time=00:04:47.45 bitrate=N/A speed=19.9x    frame= 7130 fps=476 q=-0.0 size=N/A time=00:04:57.38 bitrate=N/A speed=19.9x    frame= 7395 fps=477 q=-0.0 size=N/A time=00:05:08.43 bitrate=N/A speed=19.9x    frame= 7640 fps=478 q=-0.0 size=N/A time=00:05:18.65 bitrate=N/A speed=19.9x    frame= 7901 fps=478 q=-0.0 size=N/A time=00:05:29.53 bitrate=N/A speed=  20x    frame= 8158 fps=479 q=-0.0 size=N/A time=00:05:40.25 bitrate=N/A speed=  20x    frame= 8426 fps=480 q=-0.0 size=N/A time=00:05:51.43 bitrate=N/A speed=  20x    frame= 8702 fps=482 q=-0.0 size=N/A time=00:06:02.94 bitrate=N/A speed=20.1x    frame= 8952 fps=482 q=-0.0 size=N/A time=00:06:13.37 bitrate=N/A speed=20.1x    frame= 9193 fps=481 q=-0.0 size=N/A time=00:06:23.42 bitrate=N/A speed=20.1x    frame= 9420 fps=480 q=-0.0 size=N/A time=00:06:32.89 bitrate=N/A speed=  20x    frame= 9669 fps=480 q=-0.0 size=N/A time=00:06:43.27 bitrate=N/A speed=  20x    frame= 9879 fps=479 q=-0.0 size=N/A time=00:06:52.03 bitrate=N/A speed=  20x    frame=10123 fps=478 q=-0.0 size=N/A time=00:07:02.21 bitrate=N/A speed=  20x    frame=10358 fps=478 q=-0.0 size=N/A time=00:07:12.01 bitrate=N/A speed=19.9x    frame=10596 fps=477 q=-0.0 size=N/A time=00:07:21.94 bitrate=N/A speed=19.9x    frame=10833 fps=477 q=-0.0 size=N/A time=00:07:31.82 bitrate=N/A speed=19.9x    frame=11084 fps=477 q=-0.0 size=N/A time=00:07:42.29 bitrate=N/A speed=19.9x    frame=11333 fps=477 q=-0.0 size=N/A time=00:07:52.68 bitrate=N/A speed=19.9x    frame=11573 fps=477 q=-0.0 size=N/A time=00:08:02.69 bitrate=N/A speed=19.9x    frame=11818 fps=477 q=-0.0 size=N/A time=00:08:12.90 bitrate=N/A speed=19.9x    frame=12056 fps=477 q=-0.0 size=N/A time=00:08:22.83 bitrate=N/A speed=19.9x    frame=12262 fps=475 q=-0.0 size=N/A time=00:08:31.42 bitrate=N/A speed=19.8x    frame=12495 fps=475 q=-0.0 size=N/A time=00:08:41.14 bitrate=N/A speed=19.8x    frame=12730 fps=475 q=-0.0 size=N/A time=00:08:50.94 bitrate=N/A speed=19.8x    frame=12909 fps=472 q=-0.0 size=N/A time=00:08:58.41 bitrate=N/A speed=19.7x    frame=13091 fps=470 q=-0.0 size=N/A time=00:09:06.00 bitrate=N/A speed=19.6x    frame=13346 fps=470 q=-0.0 size=N/A time=00:09:16.63 bitrate=N/A speed=19.6x    frame=13598 fps=471 q=-0.0 size=N/A time=00:09:27.14 bitrate=N/A speed=19.6x    frame=13854 fps=471 q=-0.0 size=N/A time=00:09:37.82 bitrate=N/A speed=19.6x    frame=14107 fps=471 q=-0.0 size=N/A time=00:09:48.37 bitrate=N/A speed=19.7x    frame=14368 fps=472 q=-0.0 size=N/A time=00:09:59.26 bitrate=N/A speed=19.7x    frame=14620 fps=472 q=-0.0 size=N/A time=00:10:09.77 bitrate=N/A speed=19.7x    frame=14839 fps=471 q=-0.0 size=N/A time=00:10:18.90 bitrate=N/A speed=19.7x    frame=15105 fps=472 q=-0.0 size=N/A time=00:10:30.04 bitrate=N/A speed=19.7x    frame=15368 fps=473 q=-0.0 size=N/A time=00:10:40.97 bitrate=N/A speed=19.7x    frame=15620 fps=473 q=-0.0 size=N/A time=00:10:51.48 bitrate=N/A speed=19.7x    frame=15877 fps=473 q=-0.0 size=N/A time=00:11:02.20 bitrate=N/A speed=19.7x    frame=16134 fps=474 q=-0.0 size=N/A time=00:11:12.92 bitrate=N/A speed=19.8x    frame=16390 fps=474 q=-0.0 size=N/A time=00:11:23.59 bitrate=N/A speed=19.8x    frame=16641 fps=474 q=-0.0 size=N/A time=00:11:34.06 bitrate=N/A speed=19.8x    frame=16888 fps=474 q=-0.0 size=N/A time=00:11:44.37 bitrate=N/A speed=19.8x    frame=17140 fps=475 q=-0.0 size=N/A time=00:11:54.88 bitrate=N/A speed=19.8x    frame=17355 fps=474 q=-0.0 size=N/A time=00:12:03.84 bitrate=N/A speed=19.8x    frame=17577 fps=473 q=-0.0 size=N/A time=00:12:13.10 bitrate=N/A speed=19.7x    frame=17823 fps=473 q=-0.0 size=N/A time=00:12:23.36 bitrate=N/A speed=19.7x    frame=18096 fps=474 q=-0.0 size=N/A time=00:12:34.75 bitrate=N/A speed=19.8x    frame=18346 fps=474 q=-0.0 size=N/A time=00:12:45.18 bitrate=N/A speed=19.8x    frame=18534 fps=473 q=-0.0 size=N/A time=00:12:53.02 bitrate=N/A speed=19.7x    frame=18776 fps=473 q=-0.0 size=N/A time=00:13:03.11 bitrate=N/A speed=19.7x    frame=19024 fps=473 q=-0.0 size=N/A time=00:13:13.45 bitrate=N/A speed=19.7x    frame=19253 fps=472 q=-0.0 size=N/A time=00:13:23.01 bitrate=N/A speed=19.7x    frame=19461 fps=472 q=-0.0 size=N/A time=00:13:31.68 bitrate=N/A speed=19.7x    frame=19660 fps=470 q=-0.0 size=N/A time=00:13:39.98 bitrate=N/A speed=19.6x    frame=19860 fps=469 q=-0.0 size=N/A time=00:13:48.32 bitrate=N/A speed=19.6x    frame=20045 fps=468 q=-0.0 size=N/A time=00:13:56.04 bitrate=N/A speed=19.5x    frame=20209 fps=466 q=-0.0 size=N/A time=00:14:02.88 bitrate=N/A speed=19.4x    frame=20424 fps=466 q=-0.0 size=N/A time=00:14:11.85 bitrate=N/A speed=19.4x    frame=20611 fps=465 q=-0.0 size=N/A time=00:14:19.65 bitrate=N/A speed=19.4x    frame=20831 fps=464 q=-0.0 size=N/A time=00:14:28.82 bitrate=N/A speed=19.4x    frame=21027 fps=463 q=-0.0 size=N/A time=00:14:37.00 bitrate=N/A speed=19.3x    frame=21257 fps=463 q=-0.0 size=N/A time=00:14:46.59 bitrate=N/A speed=19.3x    frame=21457 fps=462 q=-0.0 size=N/A time=00:14:54.93 bitrate=N/A speed=19.3x    frame=21715 fps=463 q=-0.0 size=N/A time=00:15:05.69 bitrate=N/A speed=19.3x    frame=21949 fps=462 q=-0.0 size=N/A time=00:15:15.45 bitrate=N/A speed=19.3x    frame=22183 fps=462 q=-0.0 size=N/A time=00:15:25.21 bitrate=N/A speed=19.3x    frame=22426 fps=462 q=-0.0 size=N/A time=00:15:35.35 bitrate=N/A speed=19.3x    frame=22635 fps=462 q=-0.0 size=N/A time=00:15:44.06 bitrate=N/A speed=19.3x    frame=22853 fps=461 q=-0.0 size=N/A time=00:15:53.16 bitrate=N/A speed=19.2x    frame=23067 fps=461 q=-0.0 size=N/A time=00:16:02.08 bitrate=N/A speed=19.2x    frame=23283 fps=461 q=-0.0 size=N/A time=00:16:11.09 bitrate=N/A speed=19.2x    frame=23481 fps=460 q=-0.0 size=N/A time=00:16:19.35 bitrate=N/A speed=19.2x    frame=23693 fps=459 q=-0.0 size=N/A time=00:16:28.19 bitrate=N/A speed=19.2x    frame=23887 fps=459 q=-0.0 size=N/A time=00:16:36.28 bitrate=N/A speed=19.1x    frame=24124 fps=459 q=-0.0 size=N/A time=00:16:46.17 bitrate=N/A speed=19.1x    frame=24378 fps=459 q=-0.0 size=N/A time=00:16:56.76 bitrate=N/A speed=19.1x    frame=24594 fps=458 q=-0.0 size=N/A time=00:17:05.77 bitrate=N/A speed=19.1x    frame=24818 fps=458 q=-0.0 size=N/A time=00:17:15.11 bitrate=N/A speed=19.1x    frame=25010 fps=457 q=-0.0 size=N/A time=00:17:23.12 bitrate=N/A speed=19.1x    frame=25255 fps=458 q=-0.0 size=N/A time=00:17:33.34 bitrate=N/A speed=19.1x    frame=25509 fps=458 q=-0.0 size=N/A time=00:17:43.93 bitrate=N/A speed=19.1x    frame=25786 fps=459 q=-0.0 size=N/A time=00:17:55.49 bitrate=N/A speed=19.1x    frame=26018 fps=459 q=-0.0 size=N/A time=00:18:05.16 bitrate=N/A speed=19.1x    frame=26241 fps=458 q=-0.0 size=N/A time=00:18:14.46 bitrate=N/A speed=19.1x    frame=26465 fps=458 q=-0.0 size=N/A time=00:18:23.81 bitrate=N/A speed=19.1x    frame=26709 fps=458 q=-0.0 size=N/A time=00:18:33.98 bitrate=N/A speed=19.1x    frame=26971 fps=459 q=-0.0 size=N/A time=00:18:44.91 bitrate=N/A speed=19.1x    frame=27221 fps=459 q=-0.0 size=N/A time=00:18:55.34 bitrate=N/A speed=19.1x    frame=27465 fps=459 q=-0.0 size=N/A time=00:19:05.51 bitrate=N/A speed=19.1x    frame=27683 fps=459 q=-0.0 size=N/A time=00:19:14.61 bitrate=N/A speed=19.1x    frame=27909 fps=459 q=-0.0 size=N/A time=00:19:24.03 bitrate=N/A speed=19.1x    frame=28132 fps=458 q=-0.0 size=N/A time=00:19:33.33 bitrate=N/A speed=19.1x    frame=28358 fps=458 q=-0.0 size=N/A time=00:19:42.76 bitrate=N/A speed=19.1x    frame=28600 fps=458 q=-0.0 size=N/A time=00:19:52.85 bitrate=N/A speed=19.1x    frame=28847 fps=458 q=-0.0 size=N/A time=00:20:03.16 bitrate=N/A speed=19.1x    frame=29100 fps=459 q=-0.0 size=N/A time=00:20:13.71 bitrate=N/A speed=19.1x    frame=29326 fps=459 q=-0.0 size=N/A time=00:20:23.13 bitrate=N/A speed=19.1x    frame=29582 fps=459 q=-0.0 size=N/A time=00:20:33.81 bitrate=N/A speed=19.1x    frame=29847 fps=459 q=-0.0 size=N/A time=00:20:44.86 bitrate=N/A speed=19.2x    frame=30063 fps=459 q=-0.0 size=N/A time=00:20:53.87 bitrate=N/A speed=19.1x    frame=30288 fps=459 q=-0.0 size=N/A time=00:21:03.26 bitrate=N/A speed=19.1x    frame=30475 fps=458 q=-0.0 size=N/A time=00:21:11.06 bitrate=N/A speed=19.1x    frame=30738 fps=458 q=-0.0 size=N/A time=00:21:22.03 bitrate=N/A speed=19.1x    frame=31000 fps=459 q=-0.0 size=N/A time=00:21:32.95 bitrate=N/A speed=19.1x    frame=31253 fps=459 q=-0.0 size=N/A time=00:21:43.51 bitrate=N/A speed=19.1x    frame=31524 fps=460 q=-0.0 size=N/A time=00:21:54.81 bitrate=N/A speed=19.2x    frame=31768 fps=460 q=-0.0 size=N/A time=00:22:04.99 bitrate=N/A speed=19.2x    frame=31990 fps=459 q=-0.0 size=N/A time=00:22:14.24 bitrate=N/A speed=19.2x    frame=32212 fps=459 q=-0.0 size=N/A time=00:22:23.50 bitrate=N/A speed=19.2x    frame=32436 fps=459 q=-0.0 size=N/A time=00:22:32.85 bitrate=N/A speed=19.1x    frame=32710 fps=460 q=-0.0 size=N/A time=00:22:44.27 bitrate=N/A speed=19.2x    frame=32970 fps=460 q=-0.0 size=N/A time=00:22:55.12 bitrate=N/A speed=19.2x    frame=33226 fps=460 q=-0.0 size=N/A time=00:23:05.80 bitrate=N/A speed=19.2x    frame=33485 fps=460 q=-0.0 size=N/A time=00:23:16.60 bitrate=N/A speed=19.2x    frame=33731 fps=461 q=-0.0 size=N/A time=00:23:26.86 bitrate=N/A speed=19.2x    frame=33970 fps=461 q=-0.0 size=N/A time=00:23:36.83 bitrate=N/A speed=19.2x    [Parsed_psnr_10 @ 0000023ed5c42f80] PSNR y:49.142567 u:52.417481 v:52.688858 average:50.011149 min:41.233642 max:inf
[out#0/null @ 0000023ed5bf4c00] video:14697KiB audio:267516KiB subtitle:0KiB other streams:0KiB global headers:0KiB muxing overhead: unknown
frame=34203 fps=461 q=-0.0 Lsize=N/A time=00:23:46.55 bitrate=N/A speed=19.2x    
